<svg xmlns="http://www.w3.org/2000/svg" viewBox="0 0 64 64">
  <rect width="64" height="64" rx="14" fill="#191724"/>
  <path d="M32 9c7 9.5 11.5 14.5 11.5 21.5a11.5 11.5 0 1 1-23 0C20.5 23.5 25 18.5 32 9z" fill="#ebbcba"/>
  <path d="M32 17c5 6.8 8 10.3 8 15a8 8 0 1 1-16 0c0-4.7 3-8.2 8-15z" fill="#eb6f92"/>
  <path d="M32 25c3.1 4.2 4.8 6.2 4.8 9a4.8 4.8 0 1 1-9.6 0c0-2.8 1.7-4.8 4.8-9z" fill="#f6c177"/>
  <rect x="25.5" y="45" width="13" height="6" rx="2.5" fill="#31748f"/>
  <rect x="28.5" y="52.5" width="7" height="3.5" rx="1.75" fill="#31748f" opacity=".7"/>
</svg>
